<?xml version="1.0" standalone="no"?>
<!DOCTYPE svg PUBLIC "-//W3C//DTD SVG 20010904//EN"
 "http://www.w3.org/TR/2001/REC-SVG-20010904/DTD/svg10.dtd">
<svg version="1.0" xmlns="http://www.w3.org/2000/svg"
 width="142.000000pt" height="142.000000pt" viewBox="0 0 142.000000 142.000000"
 preserveAspectRatio="xMidYMid meet">
<metadata>
Created by potrace 1.11, written by Peter Selinger 2001-2013
</metadata>
<g transform="translate(0.000000,142.000000) scale(0.100000,-0.100000)"
fill="#000000" stroke="none">
<path d="M890 1128 c-36 -12 -67 -22 -69 -24 -10 -9 -6 -584 4 -581 6 2 46 16
90 31 l80 26 0 285 c0 327 12 299 -105 263z"/>
<path d="M1027 1104 c-16 -16 -4 -24 64 -45 51 -16 74 -18 82 -10 14 14 12 15
-53 33 -30 9 -62 19 -71 22 -8 4 -18 3 -22 0z"/>
<path d="M1022 1028 c5 -15 148 -60 148 -47 0 5 0 12 1 16 0 8 -108 43 -134
43 -10 0 -17 -6 -15 -12z"/>
<path d="M385 958 c-33 -11 -66 -21 -72 -23 -7 -3 -13 -19 -14 -37 -1 -40 -1
-530 0 -540 1 -6 64 9 136 33 l40 14 1 288 c2 326 11 298 -91 265z"/>
<path d="M1025 970 c-4 -6 -5 -13 -4 -15 10 -8 144 -43 151 -39 19 12 4 24
-49 39 -32 9 -65 18 -75 21 -9 3 -19 0 -23 -6z"/>
<path d="M510 953 c0 -15 14 -23 70 -37 102 -27 115 -3 15 27 -27 8 -58 18
-67 22 -14 5 -18 2 -18 -12z"/>
<path d="M1026 913 c-14 -15 -2 -23 63 -43 37 -11 73 -20 80 -20 20 0 12 20
-12 29 -54 21 -126 39 -131 34z"/>
<path d="M510 887 c0 -8 26 -21 63 -32 78 -23 82 -23 82 -6 0 9 -24 21 -65 33
-78 22 -80 22 -80 5z"/>
<path d="M1025 840 c-7 -11 -3 -13 82 -39 50 -15 63 -16 67 -5 4 11 -12 23
-36 24 -4 1 -26 7 -49 15 -49 18 -56 18 -64 5z"/>
<path d="M510 827 c0 -17 13 -23 88 -43 64 -17 62 -17 62 -1 0 11 -38 27 -132
53 -11 3 -18 0 -18 -9z"/>
<path d="M1025 780 c-4 -6 -5 -13 -2 -16 9 -10 140 -43 148 -38 19 12 6 21
-48 37 -32 9 -65 19 -74 22 -10 4 -20 1 -24 -5z"/>
<path d="M505 761 c-5 -9 115 -51 144 -51 31 0 -1 26 -50 42 -63 20 -86 22
-94 9z"/>
<path d="M1027 716 c-5 -12 6 -19 46 -31 69 -20 99 -22 104 -9 2 6 -22 18 -54
27 -32 8 -65 19 -74 22 -10 4 -19 0 -22 -9z"/>
<path d="M510 697 c0 -11 38 -27 133 -53 11 -4 17 0 17 10 0 10 -23 22 -69 36
-81 24 -81 24 -81 7z"/>
<path d="M510 635 c0 -9 25 -21 69 -35 81 -24 81 -24 81 -7 0 7 -30 23 -68 35
-81 26 -82 26 -82 7z"/>
<path d="M1080 583 c-41 -13 -84 -28 -95 -33 -33 -14 -359 -120 -370 -120 -7
0 -11 22 -10 52 l0 52 -48 18 -47 18 0 -89 0 -89 -67 -26 c-38 -14 -111 -41
-163 -60 l-95 -34 -3 -41 c-2 -22 -2 -41 0 -41 2 0 204 68 448 151 245 83 450
152 455 153 6 1 29 9 53 16 41 13 42 14 42 57 0 50 3 50 -100 16z"/>
</g>
</svg>
