<svg version="1" xmlns="http://www.w3.org/2000/svg" width="189.333" height="189.333" viewBox="0 0 142.000000 142.000000"><path d="M89 29.2c-3.6 1.2-6.7 2.2-6.9 2.4-1 .9-.6 58.4.4 58.1.6-.2 4.6-1.6 9-3.1l8-2.6V55.5c0-32.7 1.2-29.9-10.5-26.3zm13.7 2.4c-1.6 1.6-.4 2.4 6.4 4.5 5.1 1.6 7.4 1.8 8.2 1 1.4-1.4 1.2-1.5-5.3-3.3-3-.9-6.2-1.9-7.1-2.2-.8-.4-1.8-.3-2.2 0zm-.5 7.6c.5 1.5 14.8 6 14.8 4.7 0-.5 0-1.2.1-1.6 0-.8-10.8-4.3-13.4-4.3-1 0-1.7.6-1.5 1.2zm-63.7 7c-3.3 1.1-6.6 2.1-7.2 2.3-.7.3-1.3 1.9-1.4 3.7-.1 4-.1 53 0 54 .1.6 6.4-.9 13.6-3.3l4-1.4.1-28.8c.2-32.6 1.1-29.8-9.1-26.5zm64-1.2c-.4.6-.5 1.3-.4 1.5 1 .8 14.4 4.3 15.1 3.9 1.9-1.2.4-2.4-4.9-3.9-3.2-.9-6.5-1.8-7.5-2.1-.9-.3-1.9 0-2.3.6zM51 46.7c0 1.5 1.4 2.3 7 3.7 10.2 2.7 11.5.3 1.5-2.7-2.7-.8-5.8-1.8-6.7-2.2-1.4-.5-1.8-.2-1.8 1.2zm51.6 4c-1.4 1.5-.2 2.3 6.3 4.3 3.7 1.1 7.3 2 8 2 2 0 1.2-2-1.2-2.9-5.4-2.1-12.6-3.9-13.1-3.4zM51 53.3c0 .8 2.6 2.1 6.3 3.2 7.8 2.3 8.2 2.3 8.2.6 0-.9-2.4-2.1-6.5-3.3-7.8-2.2-8-2.2-8-.5zm51.5 4.7c-.7 1.1-.3 1.3 8.2 3.9 5 1.5 6.3 1.6 6.7.5.4-1.1-1.2-2.3-3.6-2.4-.4-.1-2.6-.7-4.9-1.5-4.9-1.8-5.6-1.8-6.4-.5zM51 59.3c0 1.7 1.3 2.3 8.8 4.3 6.4 1.7 6.2 1.7 6.2.1 0-1.1-3.8-2.7-13.2-5.3-1.1-.3-1.8 0-1.8.9zm51.5 4.7c-.4.6-.5 1.3-.2 1.6.9 1 14 4.3 14.8 3.8 1.9-1.2.6-2.1-4.8-3.7-3.2-.9-6.5-1.9-7.4-2.2-1-.4-2-.1-2.4.5zm-52 1.9C50 66.8 62 71 64.9 71c3.1 0-.1-2.6-5-4.2-6.3-2-8.6-2.2-9.4-.9zm52.2 4.5c-.5 1.2.6 1.9 4.6 3.1 6.9 2 9.9 2.2 10.4.9.2-.6-2.2-1.8-5.4-2.7-3.2-.8-6.5-1.9-7.4-2.2-1-.4-1.9 0-2.2.9zM51 72.3c0 1.1 3.8 2.7 13.3 5.3 1.1.4 1.7 0 1.7-1s-2.3-2.2-6.9-3.6c-8.1-2.4-8.1-2.4-8.1-.7zm0 6.2c0 .9 2.5 2.1 6.9 3.5 8.1 2.4 8.1 2.4 8.1.7 0-.7-3-2.3-6.8-3.5-8.1-2.6-8.2-2.6-8.2-.7z"/><path d="M108 83.7c-4.1 1.3-8.4 2.8-9.5 3.3-3.3 1.4-35.9 12-37 12-.7 0-1.1-2.2-1-5.2v-5.2l-4.8-1.8L51 85v17.8l-6.7 2.6c-3.8 1.4-11.1 4.1-16.3 6l-9.5 3.4-.3 4.1c-.2 2.2-.2 4.1 0 4.1s20.4-6.8 44.8-15.1c24.5-8.3 45-15.2 45.5-15.3.6-.1 2.9-.9 5.3-1.6 4.1-1.3 4.2-1.4 4.2-5.7 0-5 .3-5-10-1.6z"/></svg>